<mxfile host="Electron" agent="Mozilla/5.0 (Windows NT 10.0; Win64; x64) AppleWebKit/537.36 (KHTML, like Gecko) draw.io/28.1.2 Chrome/138.0.7204.243 Electron/37.4.0 Safari/537.36" version="28.1.2">
  <diagram name="หน้า-1" id="RQOuIH4tjOAzTg2ofWRz">
    <mxGraphModel dx="2911" dy="1252" grid="1" gridSize="10" guides="1" tooltips="1" connect="1" arrows="1" fold="1" page="1" pageScale="1" pageWidth="827" pageHeight="1169" math="0" shadow="0">
      <root>
        <mxCell id="0" />
        <mxCell id="1" parent="0" />
        <mxCell id="nBkgktEvx8I1dZ0qDqBK-2" value="เริ่มต้น" style="ellipse;whiteSpace=wrap;html=1;fillColor=#dae8fc;strokeColor=#6c8ebf;" vertex="1" parent="1">
          <mxGeometry x="263.14" y="40" width="100" height="50" as="geometry" />
        </mxCell>
        <mxCell id="nBkgktEvx8I1dZ0qDqBK-3" value="แสดง: &quot;Enter N : &quot;" style="shape=parallelogram;perimeter=parallelogramPerimeter;whiteSpace=wrap;html=1;fixedSize=1;fillColor=#d5e8d4;strokeColor=#82b366;" vertex="1" parent="1">
          <mxGeometry x="233.14" y="120" width="160" height="40" as="geometry" />
        </mxCell>
        <mxCell id="nBkgktEvx8I1dZ0qDqBK-4" value="รับค่า N" style="shape=parallelogram;perimeter=parallelogramPerimeter;whiteSpace=wrap;html=1;fixedSize=1;fillColor=#d5e8d4;strokeColor=#82b366;" vertex="1" parent="1">
          <mxGeometry x="263.14" y="190" width="100" height="40" as="geometry" />
        </mxCell>
        <mxCell id="nBkgktEvx8I1dZ0qDqBK-5" value="กำหนด: อาร์เรย์ value[N], ตัวแปร Sqrt" style="rounded=0;whiteSpace=wrap;html=1;fillColor=#ffe6cc;strokeColor=#d79b00;" vertex="1" parent="1">
          <mxGeometry x="213.14" y="260" width="200" height="40" as="geometry" />
        </mxCell>
        <mxCell id="nBkgktEvx8I1dZ0qDqBK-6" value="ตั้งค่าตัวนับ i=0" style="rounded=0;whiteSpace=wrap;html=1;fillColor=#ffe6cc;strokeColor=#d79b00;" vertex="1" parent="1">
          <mxGeometry x="263.14" y="330" width="100" height="40" as="geometry" />
        </mxCell>
        <mxCell id="nBkgktEvx8I1dZ0qDqBK-7" value="i &amp;lt; N ?" style="rhombus;whiteSpace=wrap;html=1;fillColor=#f8cecc;strokeColor=#b85450;" vertex="1" parent="1">
          <mxGeometry x="253.14" y="400" width="120" height="60" as="geometry" />
        </mxCell>
        <mxCell id="nBkgktEvx8I1dZ0qDqBK-8" value="แสดง: &quot;Enter value[i] : &quot;" style="shape=parallelogram;perimeter=parallelogramPerimeter;whiteSpace=wrap;html=1;fixedSize=1;fillColor=#d5e8d4;strokeColor=#82b366;" vertex="1" parent="1">
          <mxGeometry x="233.14" y="490" width="160" height="40" as="geometry" />
        </mxCell>
        <mxCell id="nBkgktEvx8I1dZ0qDqBK-9" value="รับค่า value[i]" style="shape=parallelogram;perimeter=parallelogramPerimeter;whiteSpace=wrap;html=1;fixedSize=1;fillColor=#d5e8d4;strokeColor=#82b366;" vertex="1" parent="1">
          <mxGeometry x="243.14" y="560" width="140" height="40" as="geometry" />
        </mxCell>
        <mxCell id="nBkgktEvx8I1dZ0qDqBK-10" value="เพิ่มค่า i=i+1" style="rounded=0;whiteSpace=wrap;html=1;fillColor=#ffe6cc;strokeColor=#d79b00;" vertex="1" parent="1">
          <mxGeometry x="263.14" y="630" width="100" height="40" as="geometry" />
        </mxCell>
        <mxCell id="nBkgktEvx8I1dZ0qDqBK-11" value="แสดง: &quot;Index :\t&quot;" style="shape=parallelogram;perimeter=parallelogramPerimeter;whiteSpace=wrap;html=1;fixedSize=1;fillColor=#d5e8d4;strokeColor=#82b366;" vertex="1" parent="1">
          <mxGeometry x="443.14" y="410" width="120" height="40" as="geometry" />
        </mxCell>
        <mxCell id="nBkgktEvx8I1dZ0qDqBK-12" value="ตั้งค่าตัวนับ i=0" style="rounded=0;whiteSpace=wrap;html=1;fillColor=#ffe6cc;strokeColor=#d79b00;" vertex="1" parent="1">
          <mxGeometry x="443.14" y="490" width="120" height="40" as="geometry" />
        </mxCell>
        <mxCell id="nBkgktEvx8I1dZ0qDqBK-79" style="edgeStyle=orthogonalEdgeStyle;rounded=0;orthogonalLoop=1;jettySize=auto;html=1;entryX=0.5;entryY=0;entryDx=0;entryDy=0;" edge="1" parent="1" source="nBkgktEvx8I1dZ0qDqBK-13" target="nBkgktEvx8I1dZ0qDqBK-16">
          <mxGeometry relative="1" as="geometry" />
        </mxCell>
        <mxCell id="nBkgktEvx8I1dZ0qDqBK-13" value="i &amp;lt; N ?" style="rhombus;whiteSpace=wrap;html=1;fillColor=#f8cecc;strokeColor=#b85450;" vertex="1" parent="1">
          <mxGeometry x="443.14" y="560" width="120" height="60" as="geometry" />
        </mxCell>
        <mxCell id="nBkgktEvx8I1dZ0qDqBK-78" value="" style="edgeStyle=orthogonalEdgeStyle;rounded=0;orthogonalLoop=1;jettySize=auto;html=1;" edge="1" parent="1" source="nBkgktEvx8I1dZ0qDqBK-14" target="nBkgktEvx8I1dZ0qDqBK-15">
          <mxGeometry relative="1" as="geometry" />
        </mxCell>
        <mxCell id="nBkgktEvx8I1dZ0qDqBK-14" value="แสดง: i, &quot;\t&quot;" style="shape=parallelogram;perimeter=parallelogramPerimeter;whiteSpace=wrap;html=1;fixedSize=1;fillColor=#d5e8d4;strokeColor=#82b366;" vertex="1" parent="1">
          <mxGeometry x="593.14" y="570" width="120" height="40" as="geometry" />
        </mxCell>
        <mxCell id="nBkgktEvx8I1dZ0qDqBK-80" style="edgeStyle=orthogonalEdgeStyle;rounded=0;orthogonalLoop=1;jettySize=auto;html=1;" edge="1" parent="1" source="nBkgktEvx8I1dZ0qDqBK-15">
          <mxGeometry relative="1" as="geometry">
            <mxPoint x="503" y="540" as="targetPoint" />
            <Array as="points">
              <mxPoint x="770" y="670" />
              <mxPoint x="770" y="540" />
            </Array>
          </mxGeometry>
        </mxCell>
        <mxCell id="nBkgktEvx8I1dZ0qDqBK-15" value="เพิ่มค่า i=i+1" style="rounded=0;whiteSpace=wrap;html=1;fillColor=#ffe6cc;strokeColor=#d79b00;" vertex="1" parent="1">
          <mxGeometry x="593.14" y="650" width="120" height="40" as="geometry" />
        </mxCell>
        <mxCell id="nBkgktEvx8I1dZ0qDqBK-16" value="แสดง: &quot;\n&quot;" style="shape=parallelogram;perimeter=parallelogramPerimeter;whiteSpace=wrap;html=1;fixedSize=1;fillColor=#d5e8d4;strokeColor=#82b366;" vertex="1" parent="1">
          <mxGeometry x="443.14" y="770" width="120" height="40" as="geometry" />
        </mxCell>
        <mxCell id="nBkgktEvx8I1dZ0qDqBK-17" value="แสดง: &quot;Array :\t&quot;" style="shape=parallelogram;perimeter=parallelogramPerimeter;whiteSpace=wrap;html=1;fixedSize=1;fillColor=#d5e8d4;strokeColor=#82b366;" vertex="1" parent="1">
          <mxGeometry x="443.14" y="840" width="120" height="40" as="geometry" />
        </mxCell>
        <mxCell id="nBkgktEvx8I1dZ0qDqBK-18" value="ตั้งค่าตัวนับ i=0" style="rounded=0;whiteSpace=wrap;html=1;fillColor=#ffe6cc;strokeColor=#d79b00;" vertex="1" parent="1">
          <mxGeometry x="263.14" y="910" width="100" height="40" as="geometry" />
        </mxCell>
        <mxCell id="nBkgktEvx8I1dZ0qDqBK-19" value="i &amp;lt; N ?" style="rhombus;whiteSpace=wrap;html=1;fillColor=#f8cecc;strokeColor=#b85450;" vertex="1" parent="1">
          <mxGeometry x="343.14" y="980" width="120" height="60" as="geometry" />
        </mxCell>
        <mxCell id="nBkgktEvx8I1dZ0qDqBK-20" value="value[i]%2==1 &amp;amp; value[i]!=1 ?" style="rhombus;whiteSpace=wrap;html=1;fillColor=#f8cecc;strokeColor=#b85450;" vertex="1" parent="1">
          <mxGeometry x="153.14" y="1080" width="240" height="60" as="geometry" />
        </mxCell>
        <mxCell id="nBkgktEvx8I1dZ0qDqBK-21" value="value[i]%2==0 &amp;amp; value[i]!=2 ?" style="rhombus;whiteSpace=wrap;html=1;fillColor=#f8cecc;strokeColor=#b85450;" vertex="1" parent="1">
          <mxGeometry x="730" y="1080" width="220" height="60" as="geometry" />
        </mxCell>
        <mxCell id="nBkgktEvx8I1dZ0qDqBK-22" value="value[i]==2 ?" style="rhombus;whiteSpace=wrap;html=1;fillColor=#f8cecc;strokeColor=#b85450;" vertex="1" parent="1">
          <mxGeometry x="750" y="1220" width="180" height="60" as="geometry" />
        </mxCell>
        <mxCell id="nBkgktEvx8I1dZ0qDqBK-23" value="แสดง: value[i], &quot;\t&quot;" style="shape=parallelogram;perimeter=parallelogramPerimeter;whiteSpace=wrap;html=1;fixedSize=1;fillColor=#d5e8d4;strokeColor=#82b366;" vertex="1" parent="1">
          <mxGeometry x="1000" y="1230" width="120" height="40" as="geometry" />
        </mxCell>
        <mxCell id="nBkgktEvx8I1dZ0qDqBK-24" value="แสดง: &quot;#\t&quot;" style="shape=parallelogram;perimeter=parallelogramPerimeter;whiteSpace=wrap;html=1;fixedSize=1;fillColor=#d5e8d4;strokeColor=#82b366;" vertex="1" parent="1">
          <mxGeometry x="990" y="1090" width="120" height="40" as="geometry" />
        </mxCell>
        <mxCell id="nBkgktEvx8I1dZ0qDqBK-25" value="Sqrt=(int)sqrt(value[i])" style="rounded=0;whiteSpace=wrap;html=1;fillColor=#ffe6cc;strokeColor=#d79b00;" vertex="1" parent="1">
          <mxGeometry x="-320" y="1190" width="200" height="40" as="geometry" />
        </mxCell>
        <mxCell id="nBkgktEvx8I1dZ0qDqBK-26" value="ตั้งค่าตัวนับ j=Sqrt" style="rounded=0;whiteSpace=wrap;html=1;fillColor=#ffe6cc;strokeColor=#d79b00;" vertex="1" parent="1">
          <mxGeometry x="-270" y="1270" width="100" height="40" as="geometry" />
        </mxCell>
        <mxCell id="nBkgktEvx8I1dZ0qDqBK-27" value="j &amp;gt; 0 ?" style="rhombus;whiteSpace=wrap;html=1;fillColor=#f8cecc;strokeColor=#b85450;" vertex="1" parent="1">
          <mxGeometry x="-280" y="1360" width="120" height="60" as="geometry" />
        </mxCell>
        <mxCell id="nBkgktEvx8I1dZ0qDqBK-28" value="value[i]%j==0 &amp;amp; j!=1 ?" style="rhombus;whiteSpace=wrap;html=1;fillColor=#f8cecc;strokeColor=#b85450;" vertex="1" parent="1">
          <mxGeometry x="-310" y="1450" width="180" height="60" as="geometry" />
        </mxCell>
        <mxCell id="nBkgktEvx8I1dZ0qDqBK-29" value="แสดง: &quot;#\t&quot;" style="shape=parallelogram;perimeter=parallelogramPerimeter;whiteSpace=wrap;html=1;fixedSize=1;fillColor=#d5e8d4;strokeColor=#82b366;" vertex="1" parent="1">
          <mxGeometry x="-270" y="1580" width="100" height="40" as="geometry" />
        </mxCell>
        <mxCell id="nBkgktEvx8I1dZ0qDqBK-30" value="j==2 ?" style="rhombus;whiteSpace=wrap;html=1;fillColor=#f8cecc;strokeColor=#b85450;" vertex="1" parent="1">
          <mxGeometry x="93.13999999999999" y="1450" width="100" height="60" as="geometry" />
        </mxCell>
        <mxCell id="nBkgktEvx8I1dZ0qDqBK-83" style="edgeStyle=orthogonalEdgeStyle;rounded=0;orthogonalLoop=1;jettySize=auto;html=1;entryX=1;entryY=0.5;entryDx=0;entryDy=0;" edge="1" parent="1" source="nBkgktEvx8I1dZ0qDqBK-31" target="nBkgktEvx8I1dZ0qDqBK-32">
          <mxGeometry relative="1" as="geometry">
            <Array as="points">
              <mxPoint x="300" y="1620" />
            </Array>
          </mxGeometry>
        </mxCell>
        <mxCell id="nBkgktEvx8I1dZ0qDqBK-31" value="แสดง: value[i], &quot;\t&quot;" style="shape=parallelogram;perimeter=parallelogramPerimeter;whiteSpace=wrap;html=1;fixedSize=1;fillColor=#d5e8d4;strokeColor=#82b366;" vertex="1" parent="1">
          <mxGeometry x="253.14" y="1500" width="100" height="40" as="geometry" />
        </mxCell>
        <mxCell id="nBkgktEvx8I1dZ0qDqBK-32" value="ลดค่า j=j−1" style="rounded=0;whiteSpace=wrap;html=1;fillColor=#ffe6cc;strokeColor=#d79b00;" vertex="1" parent="1">
          <mxGeometry x="93.14" y="1600" width="100" height="40" as="geometry" />
        </mxCell>
        <mxCell id="nBkgktEvx8I1dZ0qDqBK-33" value="เพิ่มค่า i=i+1" style="rounded=0;whiteSpace=wrap;html=1;fillColor=#ffe6cc;strokeColor=#d79b00;" vertex="1" parent="1">
          <mxGeometry x="790" y="1490" width="100" height="40" as="geometry" />
        </mxCell>
        <mxCell id="nBkgktEvx8I1dZ0qDqBK-34" value="สิ้นสุด" style="ellipse;whiteSpace=wrap;html=1;fillColor=#dae8fc;strokeColor=#6c8ebf;" vertex="1" parent="1">
          <mxGeometry x="353.14" y="1970" width="100" height="50" as="geometry" />
        </mxCell>
        <mxCell id="nBkgktEvx8I1dZ0qDqBK-35" value="" style="endArrow=classic;html=1;rounded=0;" edge="1" parent="1" source="nBkgktEvx8I1dZ0qDqBK-2" target="nBkgktEvx8I1dZ0qDqBK-3">
          <mxGeometry width="50" height="50" relative="1" as="geometry" />
        </mxCell>
        <mxCell id="nBkgktEvx8I1dZ0qDqBK-36" value="" style="endArrow=classic;html=1;rounded=0;" edge="1" parent="1" source="nBkgktEvx8I1dZ0qDqBK-3" target="nBkgktEvx8I1dZ0qDqBK-4">
          <mxGeometry width="50" height="50" relative="1" as="geometry" />
        </mxCell>
        <mxCell id="nBkgktEvx8I1dZ0qDqBK-37" value="" style="endArrow=classic;html=1;rounded=0;" edge="1" parent="1" source="nBkgktEvx8I1dZ0qDqBK-4" target="nBkgktEvx8I1dZ0qDqBK-5">
          <mxGeometry width="50" height="50" relative="1" as="geometry" />
        </mxCell>
        <mxCell id="nBkgktEvx8I1dZ0qDqBK-38" value="" style="endArrow=classic;html=1;rounded=0;" edge="1" parent="1" source="nBkgktEvx8I1dZ0qDqBK-5" target="nBkgktEvx8I1dZ0qDqBK-6">
          <mxGeometry width="50" height="50" relative="1" as="geometry" />
        </mxCell>
        <mxCell id="nBkgktEvx8I1dZ0qDqBK-39" value="" style="endArrow=classic;html=1;rounded=0;" edge="1" parent="1" source="nBkgktEvx8I1dZ0qDqBK-6" target="nBkgktEvx8I1dZ0qDqBK-7">
          <mxGeometry width="50" height="50" relative="1" as="geometry" />
        </mxCell>
        <mxCell id="nBkgktEvx8I1dZ0qDqBK-40" value="จริง" style="edgeStyle=orthogonalEdgeStyle;html=1;align=left;verticalAlign=bottom;rounded=0;" edge="1" parent="1" source="nBkgktEvx8I1dZ0qDqBK-7" target="nBkgktEvx8I1dZ0qDqBK-8">
          <mxGeometry y="10" relative="1" as="geometry">
            <Array as="points" />
          </mxGeometry>
        </mxCell>
        <mxCell id="nBkgktEvx8I1dZ0qDqBK-41" value="" style="endArrow=classic;html=1;rounded=0;" edge="1" parent="1" source="nBkgktEvx8I1dZ0qDqBK-8" target="nBkgktEvx8I1dZ0qDqBK-9">
          <mxGeometry width="50" height="50" relative="1" as="geometry" />
        </mxCell>
        <mxCell id="nBkgktEvx8I1dZ0qDqBK-42" value="" style="endArrow=classic;html=1;rounded=0;" edge="1" parent="1" source="nBkgktEvx8I1dZ0qDqBK-9" target="nBkgktEvx8I1dZ0qDqBK-10">
          <mxGeometry width="50" height="50" relative="1" as="geometry" />
        </mxCell>
        <mxCell id="nBkgktEvx8I1dZ0qDqBK-43" value="" style="endArrow=classic;html=1;rounded=0;" edge="1" parent="1" source="nBkgktEvx8I1dZ0qDqBK-10" target="nBkgktEvx8I1dZ0qDqBK-7">
          <mxGeometry width="50" height="50" relative="1" as="geometry">
            <Array as="points">
              <mxPoint x="313.14" y="700" />
              <mxPoint x="203.14" y="700" />
              <mxPoint x="203.14" y="430" />
            </Array>
          </mxGeometry>
        </mxCell>
        <mxCell id="nBkgktEvx8I1dZ0qDqBK-44" value="เท็จ" style="edgeStyle=orthogonalEdgeStyle;html=1;align=left;verticalAlign=bottom;rounded=0;" edge="1" parent="1" source="nBkgktEvx8I1dZ0qDqBK-7" target="nBkgktEvx8I1dZ0qDqBK-11">
          <mxGeometry y="10" relative="1" as="geometry">
            <Array as="points">
              <mxPoint x="403.14" y="430" />
            </Array>
          </mxGeometry>
        </mxCell>
        <mxCell id="nBkgktEvx8I1dZ0qDqBK-45" value="" style="endArrow=classic;html=1;rounded=0;" edge="1" parent="1" source="nBkgktEvx8I1dZ0qDqBK-11" target="nBkgktEvx8I1dZ0qDqBK-12">
          <mxGeometry width="50" height="50" relative="1" as="geometry" />
        </mxCell>
        <mxCell id="nBkgktEvx8I1dZ0qDqBK-46" value="" style="endArrow=classic;html=1;rounded=0;" edge="1" parent="1" source="nBkgktEvx8I1dZ0qDqBK-12" target="nBkgktEvx8I1dZ0qDqBK-13">
          <mxGeometry width="50" height="50" relative="1" as="geometry" />
        </mxCell>
        <mxCell id="nBkgktEvx8I1dZ0qDqBK-47" value="จริง" style="edgeStyle=orthogonalEdgeStyle;html=1;align=left;verticalAlign=bottom;rounded=0;" edge="1" parent="1" source="nBkgktEvx8I1dZ0qDqBK-13" target="nBkgktEvx8I1dZ0qDqBK-14">
          <mxGeometry y="10" relative="1" as="geometry">
            <Array as="points">
              <mxPoint x="573.14" y="590" />
            </Array>
          </mxGeometry>
        </mxCell>
        <mxCell id="nBkgktEvx8I1dZ0qDqBK-51" value="" style="endArrow=classic;html=1;rounded=0;" edge="1" parent="1" source="nBkgktEvx8I1dZ0qDqBK-16" target="nBkgktEvx8I1dZ0qDqBK-17">
          <mxGeometry width="50" height="50" relative="1" as="geometry" />
        </mxCell>
        <mxCell id="nBkgktEvx8I1dZ0qDqBK-52" value="" style="endArrow=classic;html=1;rounded=0;exitX=0.5;exitY=1;" edge="1" parent="1" source="nBkgktEvx8I1dZ0qDqBK-17" target="nBkgktEvx8I1dZ0qDqBK-18">
          <mxGeometry width="50" height="50" relative="1" as="geometry">
            <Array as="points">
              <mxPoint x="503.14" y="895" />
              <mxPoint x="313.14" y="895" />
            </Array>
          </mxGeometry>
        </mxCell>
        <mxCell id="nBkgktEvx8I1dZ0qDqBK-53" value="" style="endArrow=classic;html=1;rounded=0;" edge="1" parent="1" source="nBkgktEvx8I1dZ0qDqBK-18" target="nBkgktEvx8I1dZ0qDqBK-19">
          <mxGeometry width="50" height="50" relative="1" as="geometry" />
        </mxCell>
        <mxCell id="nBkgktEvx8I1dZ0qDqBK-54" value="จริง" style="edgeStyle=orthogonalEdgeStyle;html=1;align=left;verticalAlign=bottom;rounded=0;" edge="1" parent="1" source="nBkgktEvx8I1dZ0qDqBK-19" target="nBkgktEvx8I1dZ0qDqBK-20">
          <mxGeometry y="10" relative="1" as="geometry">
            <Array as="points">
              <mxPoint x="273" y="1010" />
            </Array>
          </mxGeometry>
        </mxCell>
        <mxCell id="nBkgktEvx8I1dZ0qDqBK-55" value="จริง" style="edgeStyle=orthogonalEdgeStyle;html=1;align=left;verticalAlign=bottom;rounded=0;" edge="1" parent="1" source="nBkgktEvx8I1dZ0qDqBK-20" target="nBkgktEvx8I1dZ0qDqBK-25">
          <mxGeometry y="10" relative="1" as="geometry">
            <Array as="points">
              <mxPoint x="-220" y="1110" />
            </Array>
          </mxGeometry>
        </mxCell>
        <mxCell id="nBkgktEvx8I1dZ0qDqBK-56" value="" style="endArrow=classic;html=1;rounded=0;" edge="1" parent="1" source="nBkgktEvx8I1dZ0qDqBK-25" target="nBkgktEvx8I1dZ0qDqBK-26">
          <mxGeometry width="50" height="50" relative="1" as="geometry" />
        </mxCell>
        <mxCell id="nBkgktEvx8I1dZ0qDqBK-57" value="" style="endArrow=classic;html=1;rounded=0;entryX=0.5;entryY=0;" edge="1" parent="1" source="nBkgktEvx8I1dZ0qDqBK-26" target="nBkgktEvx8I1dZ0qDqBK-27">
          <mxGeometry width="50" height="50" relative="1" as="geometry" />
        </mxCell>
        <mxCell id="nBkgktEvx8I1dZ0qDqBK-58" value="จริง" style="edgeStyle=orthogonalEdgeStyle;html=1;align=left;verticalAlign=bottom;rounded=0;entryX=0.5;entryY=0;entryDx=0;entryDy=0;" edge="1" parent="1" source="nBkgktEvx8I1dZ0qDqBK-27" target="nBkgktEvx8I1dZ0qDqBK-28">
          <mxGeometry y="10" relative="1" as="geometry">
            <Array as="points">
              <mxPoint x="-220" y="1450" />
              <mxPoint x="-220" y="1450" />
            </Array>
          </mxGeometry>
        </mxCell>
        <mxCell id="nBkgktEvx8I1dZ0qDqBK-59" value="จริง" style="edgeStyle=orthogonalEdgeStyle;html=1;align=left;verticalAlign=bottom;rounded=0;" edge="1" parent="1" source="nBkgktEvx8I1dZ0qDqBK-28" target="nBkgktEvx8I1dZ0qDqBK-29">
          <mxGeometry y="10" relative="1" as="geometry">
            <Array as="points">
              <mxPoint x="-220" y="1580" />
              <mxPoint x="-220" y="1580" />
            </Array>
          </mxGeometry>
        </mxCell>
        <mxCell id="nBkgktEvx8I1dZ0qDqBK-60" value="break" style="edgeStyle=orthogonalEdgeStyle;html=1;align=left;verticalAlign=bottom;rounded=0;endArrow=classic;" edge="1" parent="1" source="nBkgktEvx8I1dZ0qDqBK-29" target="nBkgktEvx8I1dZ0qDqBK-33">
          <mxGeometry y="10" relative="1" as="geometry">
            <Array as="points">
              <mxPoint x="-220" y="1720" />
              <mxPoint x="443" y="1720" />
              <mxPoint x="443" y="1500" />
            </Array>
          </mxGeometry>
        </mxCell>
        <mxCell id="nBkgktEvx8I1dZ0qDqBK-61" value="เท็จ" style="edgeStyle=orthogonalEdgeStyle;html=1;align=left;verticalAlign=bottom;rounded=0;entryX=0;entryY=0.5;entryDx=0;entryDy=0;" edge="1" parent="1" source="nBkgktEvx8I1dZ0qDqBK-28" target="nBkgktEvx8I1dZ0qDqBK-30">
          <mxGeometry y="10" relative="1" as="geometry">
            <Array as="points" />
          </mxGeometry>
        </mxCell>
        <mxCell id="nBkgktEvx8I1dZ0qDqBK-62" value="จริง" style="edgeStyle=orthogonalEdgeStyle;html=1;align=left;verticalAlign=bottom;rounded=0;" edge="1" parent="1" source="nBkgktEvx8I1dZ0qDqBK-30" target="nBkgktEvx8I1dZ0qDqBK-31">
          <mxGeometry y="10" relative="1" as="geometry">
            <Array as="points">
              <mxPoint x="230" y="1480" />
              <mxPoint x="230" y="1480" />
            </Array>
          </mxGeometry>
        </mxCell>
        <mxCell id="nBkgktEvx8I1dZ0qDqBK-64" value="เท็จ" style="edgeStyle=orthogonalEdgeStyle;html=1;align=left;verticalAlign=bottom;rounded=0;" edge="1" parent="1" source="nBkgktEvx8I1dZ0qDqBK-30" target="nBkgktEvx8I1dZ0qDqBK-32">
          <mxGeometry y="10" relative="1" as="geometry">
            <Array as="points">
              <mxPoint x="143" y="1550" />
              <mxPoint x="143" y="1550" />
            </Array>
          </mxGeometry>
        </mxCell>
        <mxCell id="nBkgktEvx8I1dZ0qDqBK-65" value="" style="endArrow=classic;html=1;rounded=0;" edge="1" parent="1" source="nBkgktEvx8I1dZ0qDqBK-32" target="nBkgktEvx8I1dZ0qDqBK-27">
          <mxGeometry width="50" height="50" relative="1" as="geometry">
            <Array as="points">
              <mxPoint x="40" y="1620" />
              <mxPoint x="40" y="1390" />
            </Array>
          </mxGeometry>
        </mxCell>
        <mxCell id="nBkgktEvx8I1dZ0qDqBK-66" value="เท็จ" style="edgeStyle=orthogonalEdgeStyle;html=1;align=left;verticalAlign=bottom;rounded=0;exitX=1;exitY=0.5;exitDx=0;exitDy=0;" edge="1" parent="1" source="nBkgktEvx8I1dZ0qDqBK-20" target="nBkgktEvx8I1dZ0qDqBK-21">
          <mxGeometry y="10" relative="1" as="geometry">
            <Array as="points">
              <mxPoint x="470" y="1110" />
              <mxPoint x="470" y="1110" />
            </Array>
          </mxGeometry>
        </mxCell>
        <mxCell id="nBkgktEvx8I1dZ0qDqBK-67" value="จริง" style="edgeStyle=orthogonalEdgeStyle;html=1;align=left;verticalAlign=bottom;rounded=0;exitX=1;exitY=0.5;exitDx=0;exitDy=0;" edge="1" parent="1" source="nBkgktEvx8I1dZ0qDqBK-21" target="nBkgktEvx8I1dZ0qDqBK-24">
          <mxGeometry x="0.2" y="10" relative="1" as="geometry">
            <Array as="points">
              <mxPoint x="950" y="1110" />
            </Array>
            <mxPoint x="1040" y="1270" as="sourcePoint" />
            <mxPoint as="offset" />
          </mxGeometry>
        </mxCell>
        <mxCell id="nBkgktEvx8I1dZ0qDqBK-68" value="เท็จ" style="edgeStyle=orthogonalEdgeStyle;html=1;align=left;verticalAlign=bottom;rounded=0;" edge="1" parent="1" source="nBkgktEvx8I1dZ0qDqBK-21" target="nBkgktEvx8I1dZ0qDqBK-22">
          <mxGeometry y="10" relative="1" as="geometry">
            <Array as="points">
              <mxPoint x="840" y="1210" />
              <mxPoint x="840" y="1210" />
            </Array>
          </mxGeometry>
        </mxCell>
        <mxCell id="nBkgktEvx8I1dZ0qDqBK-69" value="จริง" style="edgeStyle=orthogonalEdgeStyle;html=1;align=left;verticalAlign=bottom;rounded=0;" edge="1" parent="1" source="nBkgktEvx8I1dZ0qDqBK-22" target="nBkgktEvx8I1dZ0qDqBK-23">
          <mxGeometry y="10" relative="1" as="geometry">
            <Array as="points">
              <mxPoint x="930" y="1260" />
              <mxPoint x="930" y="1260" />
            </Array>
          </mxGeometry>
        </mxCell>
        <mxCell id="nBkgktEvx8I1dZ0qDqBK-70" value="" style="endArrow=classic;html=1;rounded=0;entryX=1;entryY=0.5;entryDx=0;entryDy=0;" edge="1" parent="1" source="nBkgktEvx8I1dZ0qDqBK-24" target="nBkgktEvx8I1dZ0qDqBK-33">
          <mxGeometry width="50" height="50" relative="1" as="geometry">
            <Array as="points">
              <mxPoint x="1210" y="1110" />
              <mxPoint x="1210" y="1510" />
            </Array>
          </mxGeometry>
        </mxCell>
        <mxCell id="nBkgktEvx8I1dZ0qDqBK-71" value="" style="endArrow=classic;html=1;rounded=0;entryX=1;entryY=0;entryDx=0;entryDy=0;" edge="1" parent="1" source="nBkgktEvx8I1dZ0qDqBK-23" target="nBkgktEvx8I1dZ0qDqBK-33">
          <mxGeometry width="50" height="50" relative="1" as="geometry">
            <Array as="points">
              <mxPoint x="1060" y="1470" />
              <mxPoint x="920" y="1470" />
            </Array>
          </mxGeometry>
        </mxCell>
        <mxCell id="nBkgktEvx8I1dZ0qDqBK-72" value="เท็จ" style="edgeStyle=orthogonalEdgeStyle;html=1;align=left;verticalAlign=bottom;rounded=0;" edge="1" parent="1" source="nBkgktEvx8I1dZ0qDqBK-22" target="nBkgktEvx8I1dZ0qDqBK-33">
          <mxGeometry y="10" relative="1" as="geometry">
            <Array as="points">
              <mxPoint x="840" y="1410" />
              <mxPoint x="840" y="1410" />
            </Array>
          </mxGeometry>
        </mxCell>
        <mxCell id="nBkgktEvx8I1dZ0qDqBK-73" value="" style="endArrow=classic;html=1;rounded=0;exitX=1;exitY=1;exitDx=0;exitDy=0;" edge="1" parent="1" source="nBkgktEvx8I1dZ0qDqBK-33">
          <mxGeometry width="50" height="50" relative="1" as="geometry">
            <Array as="points">
              <mxPoint x="920" y="1550" />
              <mxPoint x="1260" y="1550" />
              <mxPoint x="1260" y="1010" />
            </Array>
            <mxPoint x="460" y="1010" as="targetPoint" />
          </mxGeometry>
        </mxCell>
        <mxCell id="nBkgktEvx8I1dZ0qDqBK-74" value="เท็จ" style="edgeStyle=orthogonalEdgeStyle;html=1;align=left;verticalAlign=bottom;rounded=0;entryX=0.5;entryY=0;entryDx=0;entryDy=0;" edge="1" parent="1" source="nBkgktEvx8I1dZ0qDqBK-19" target="nBkgktEvx8I1dZ0qDqBK-34">
          <mxGeometry y="10" relative="1" as="geometry">
            <Array as="points">
              <mxPoint x="403" y="960" />
              <mxPoint x="1360" y="960" />
              <mxPoint x="1360" y="1940" />
              <mxPoint x="403" y="1940" />
            </Array>
          </mxGeometry>
        </mxCell>
        <mxCell id="nBkgktEvx8I1dZ0qDqBK-75" value="เท็จ" style="edgeStyle=orthogonalEdgeStyle;html=1;align=left;verticalAlign=bottom;rounded=0;endArrow=classic;exitX=0;exitY=0.5;" edge="1" parent="1" source="nBkgktEvx8I1dZ0qDqBK-27" target="nBkgktEvx8I1dZ0qDqBK-33">
          <mxGeometry y="10" relative="1" as="geometry">
            <Array as="points">
              <mxPoint x="-380" y="1390" />
              <mxPoint x="-380" y="1770" />
              <mxPoint x="840" y="1770" />
            </Array>
          </mxGeometry>
        </mxCell>
        <mxCell id="nBkgktEvx8I1dZ0qDqBK-82" value="&lt;font style=&quot;font-size: 11px;&quot;&gt;เท็จ&lt;/font&gt;" style="text;html=1;align=center;verticalAlign=middle;resizable=0;points=[];autosize=1;strokeColor=none;fillColor=none;" vertex="1" parent="1">
          <mxGeometry x="500" y="680" width="40" height="30" as="geometry" />
        </mxCell>
      </root>
    </mxGraphModel>
  </diagram>
</mxfile>
